<svg id="TU_Wien_Logo" data-name="TU Wien Logo" xmlns="http://www.w3.org/2000/svg" width="181.692" height="68.812" viewBox="0 0 181.692 68.812">
  <path id="Pfad_6" data-name="Pfad 6" d="M578.444,96.215V94.57H569.96v1.645h3.326V106.65h1.833V96.215Z" transform="translate(-397.01 -65.874)" fill="#646363" fill-rule="evenodd"/>
  <path id="Pfad_7" data-name="Pfad 7" d="M567.183,262.343h-3.717l1.884-5.362Zm3.289,3.987-4.427-12.08H564.57l-4.43,12.08h1.951l.831-2.428h4.761l.828,2.428Z" transform="translate(-397.149 -225.557)" fill="#646363" fill-rule="evenodd"/>
  <path id="Pfad_8" data-name="Pfad 8" d="M518.9,96.215V94.57H510.42v1.645h3.326V106.65h1.833V96.215Z" transform="translate(-355.537 -65.874)" fill="#646363" fill-rule="evenodd"/>
  <rect id="Rechteck_9" data-name="Rechteck 9" width="1.833" height="12.08" transform="translate(150.965 28.696)" fill="#646363"/>
  <path id="Pfad_9" data-name="Pfad 9" d="M492.649,262.628a3.158,3.158,0,0,0-.983-2.476,4.069,4.069,0,0,0-2.258-.91l-1.372-.206a2.731,2.731,0,0,1-1.359-.558,1.442,1.442,0,0,1-.458-1.12c0-1.068.78-1.884,2.206-1.884a3.547,3.547,0,0,1,2.631.935l1.168-1.153a5.024,5.024,0,0,0-3.747-1.375c-2.513,0-4.039,1.441-4.039,3.544a3,3,0,0,0,.883,2.309,4.115,4.115,0,0,0,2.291.965l1.423.2a2.116,2.116,0,0,1,1.326.51,1.63,1.63,0,0,1,.473,1.256c0,1.171-.91,1.848-2.494,1.848a3.977,3.977,0,0,1-3.086-1.153l-1.214,1.214a5.469,5.469,0,0,0,4.276,1.6C490.834,266.176,492.649,264.84,492.649,262.628Z" transform="translate(-344.141 -225.299)" fill="#646363" fill-rule="evenodd"/>
  <path id="Pfad_10" data-name="Pfad 10" d="M457.52,257.8a1.839,1.839,0,0,1-2.054,1.881h-2.7V255.9h2.713A1.844,1.844,0,0,1,457.52,257.8Zm2.206,8.533-2.783-5.344a3.174,3.174,0,0,0,2.409-3.207,3.457,3.457,0,0,0-3.751-3.529H450.92v12.08h1.821v-5.089h2.288l2.546,5.089Z" transform="translate(-321.071 -225.557)" fill="#646363" fill-rule="evenodd"/>
  <path id="Pfad_11" data-name="Pfad 11" d="M401.93,106.65V105h-5.887v-3.629h5.022V99.744h-5.022V96.215h5.887V94.57h-7.72v12.08Z" transform="translate(-274.59 -65.874)" fill="#646363" fill-rule="evenodd"/>
  <path id="Pfad_12" data-name="Pfad 12" d="M367.158,94.57h-1.933l-2.783,8.788L359.66,94.57h-1.9l3.969,12.08h1.426Z" transform="translate(-249.201 -65.874)" fill="#646363" fill-rule="evenodd"/>
  <rect id="Rechteck_10" data-name="Rechteck 10" width="1.833" height="12.08" transform="translate(105.064 28.696)" fill="#646363"/>
  <path id="Pfad_13" data-name="Pfad 13" d="M314.971,106.65V94.57h-1.83v8.481l-5.583-8.481H305.88v12.08h1.83v-8.5l5.583,8.5Z" transform="translate(-213.063 -65.874)" fill="#646363" fill-rule="evenodd"/>
  <path id="Pfad_14" data-name="Pfad 14" d="M299.255,262.258V254.25h-1.821v7.923a2.5,2.5,0,1,1-5,0V254.25H290.61v8.008a4.325,4.325,0,0,0,8.645,0Z" transform="translate(-209.406 -225.557)" fill="#646363" fill-rule="evenodd"/>
  <rect id="Rechteck_11" data-name="Rechteck 11" width="1.56" height="1.833" transform="translate(165.5 25.607)" fill="#646363"/>
  <rect id="Rechteck_12" data-name="Rechteck 12" width="1.56" height="1.833" transform="translate(169.166 25.607)" fill="#646363"/>
  <path id="Pfad_15" data-name="Pfad 15" d="M543.259,34.91V22.83h-1.833v5.155h-4.9V22.83H534.69V34.91h1.833V29.633h4.9V34.91Z" transform="translate(-372.443 -15.902)" fill="#646363" fill-rule="evenodd"/>
  <path id="Pfad_16" data-name="Pfad 16" d="M529.788,190.745H527.94a2.513,2.513,0,0,1-4.242,1.341c-.607-.646-.728-1.341-.728-3.766s.137-3.122.728-3.769a2.428,2.428,0,0,1,1.784-.728,2.4,2.4,0,0,1,2.427,2.069h1.863a4.154,4.154,0,0,0-4.306-3.714,4.379,4.379,0,0,0-3.156,1.29c-1.189,1.186-1.171,2.528-1.171,4.855s-.018,3.663,1.171,4.855a4.379,4.379,0,0,0,3.174,1.29A4.177,4.177,0,0,0,529.788,190.745Z" transform="translate(-369.984 -175.355)" fill="#646363" fill-rule="evenodd"/>
  <path id="Pfad_17" data-name="Pfad 17" d="M494.719,190.918a3.158,3.158,0,0,0-.983-2.476,4.069,4.069,0,0,0-2.258-.91l-1.372-.206a2.731,2.731,0,0,1-1.359-.558,1.441,1.441,0,0,1-.458-1.12c0-1.068.783-1.884,2.206-1.884a3.547,3.547,0,0,1,2.631.935l1.171-1.153a5.031,5.031,0,0,0-3.75-1.375c-2.513,0-4.039,1.441-4.039,3.544a3.01,3.01,0,0,0,.883,2.309,4.115,4.115,0,0,0,2.291.965l1.423.2a2.116,2.116,0,0,1,1.326.51,1.629,1.629,0,0,1,.473,1.256c0,1.171-.91,1.848-2.494,1.848a3.977,3.977,0,0,1-3.086-1.153l-1.214,1.214a5.468,5.468,0,0,0,4.275,1.6C492.9,194.456,494.719,193.133,494.719,190.918Z" transform="translate(-345.583 -175.349)" fill="#646363" fill-rule="evenodd"/>
  <rect id="Rechteck_13" data-name="Rechteck 13" width="1.833" height="12.08" transform="translate(136.597 6.928)" fill="#646363"/>
  <path id="Pfad_18" data-name="Pfad 18" d="M418.894,34.91V22.83h-1.833v8.481l-5.583-8.481H409.8V34.91h1.83v-8.5l5.583,8.5Z" transform="translate(-285.45 -15.902)" fill="#646363" fill-rule="evenodd"/>
  <path id="Pfad_19" data-name="Pfad 19" d="M379.729,34.91V22.83H377.9v5.155h-4.9V22.83H371.16V34.91h1.833V29.633h4.9V34.91Z" transform="translate(-258.535 -15.902)" fill="#646363" fill-rule="evenodd"/>
  <path id="Pfad_20" data-name="Pfad 20" d="M366.24,190.745h-1.857a2.512,2.512,0,0,1-4.242,1.341c-.607-.646-.728-1.341-.728-3.766s.137-3.122.728-3.769a2.5,2.5,0,0,1,4.227,1.341h1.866a4.159,4.159,0,0,0-4.312-3.714,4.379,4.379,0,0,0-3.171,1.29c-1.19,1.186-1.171,2.528-1.171,4.855s-.018,3.663,1.171,4.855a4.379,4.379,0,0,0,3.171,1.29A4.185,4.185,0,0,0,366.24,190.745Z" transform="translate(-256.054 -175.354)" fill="#646363" fill-rule="evenodd"/>
  <path id="Pfad_21" data-name="Pfad 21" d="M310.07,34.91V33.262h-5.887V29.633H309.2V28h-5.022V24.475h5.887V22.83h-7.72V34.91Z" transform="translate(-210.604 -15.902)" fill="#646363" fill-rule="evenodd"/>
  <path id="Pfad_22" data-name="Pfad 22" d="M276.011,24.475V22.83H267.53v1.645h3.326V34.91h1.83V24.475Z" transform="translate(-186.35 -15.902)" fill="#646363" fill-rule="evenodd"/>
  <path id="Pfad_23" data-name="Pfad 23" d="M581.05,34.91V33.262h-5.887V29.633h5.022V28h-5.022V24.475h5.887V22.83h-7.72V34.91Z" transform="translate(-399.358 -15.902)" fill="#646363" fill-rule="evenodd"/>
  <path id="Pfad_24" data-name="Pfad 24" d="M281.934,163.63H280l-2.1,8.636-2.427-8.636h-1.475l-2.428,8.636-2.1-8.636H267.53l3.156,12.08h1.593l2.443-8.466,2.461,8.466h1.6Z" transform="translate(-186.35 -113.978)" fill="#646363" fill-rule="evenodd"/>
  <path id="Pfad_25" data-name="Pfad 25" d="M380.034,175.71V163.63H378.2v8.481l-5.58-8.481H370.94v12.08h1.833v-8.5l5.583,8.5Z" transform="translate(-258.381 -113.978)" fill="#646363" fill-rule="evenodd"/>
  <path id="Pfad_26" data-name="Pfad 26" d="M344.96,175.71v-1.648h-5.887v-3.629h5.022V168.8h-5.022v-3.529h5.887V163.63h-7.72v12.08Z" transform="translate(-234.907 -113.978)" fill="#646363" fill-rule="evenodd"/>
  <rect id="Rechteck_14" data-name="Rechteck 14" width="1.833" height="12.08" transform="translate(97.344 49.652)" fill="#646363"/>
  <path id="Pfad_27" data-name="Pfad 27" d="M72.221,193.254c.109-.021.194-.033.3-.061a6.582,6.582,0,0,0,4.825-6.33L77.286,166.6h7.5v20.367a13.77,13.77,0,0,1-12.256,13.694l-.3.03Zm-2.23,7.443-.388-.033a13.655,13.655,0,0,1-12.214-13.618V166.6h7.446v20.261a6.582,6.582,0,0,0,4.825,6.33c.121.03.215.049.34.073ZM51.8,221.456v-12.11H49.436v12.11Zm16.082,0v-2.109h-5.62v-2.94h4.779v-2.124H62.265v-2.837h5.611v-2.124H59.9v12.11Zm16.938,0v-12.11H82.459v7.416l-4.8-7.416H75.538v12.11h2.385v-7.431l4.8,7.431ZM43.81,209.345H41.346l-1.887,7.638-2.2-7.638H35.478l-2.212,7.638L31.4,209.345H28.929l3.232,12.11h1.972l2.218-7.355,2.23,7.346h1.972ZM28.292,166.6h25.7v7.346h-25.7Zm9.3,33.9V176.085h7.349V200.5Zm47.337-40.81a6.87,6.87,0,0,1,6.867,6.882l.015,55.044a6.894,6.894,0,0,1-6.891,6.885H29.882A6.888,6.888,0,0,1,23,221.616V166.572a6.876,6.876,0,0,1,6.873-6.882Z" transform="translate(-23 -159.69)" fill="#006bac" fill-rule="evenodd"/>
</svg>
